<?xml version="1.0" encoding="UTF-8"?>
<!DOCTYPE svg PUBLIC "-//W3C//DTD SVG 1.1//EN" "http://www.w3.org/Graphics/SVG/1.1/DTD/svg11.dtd">
<!-- Creator: CorelDRAW X8 -->
<svg xmlns="http://www.w3.org/2000/svg" xml:space="preserve" width="12.482mm" height="12.482mm" version="1.1" style="shape-rendering:geometricPrecision; text-rendering:geometricPrecision; image-rendering:optimizeQuality; fill-rule:evenodd; clip-rule:evenodd"
viewBox="0 0 591 591"
 xmlns:xlink="http://www.w3.org/1999/xlink">
 <defs>
  <style type="text/css">
   <![CDATA[
    .fil1 {fill:#FEFEFE;fill-rule:nonzero}
    .fil0 {fill:#E77D7D;fill-rule:nonzero}
   ]]>
  </style>
 </defs>
 <g id="Layer_x0020_1">
  <metadata id="CorelCorpID_0Corel-Layer"/>
  <path class="fil0" d="M591 295c0,-163 -132,-295 -296,-295 -163,0 -295,132 -295,295 0,148 108,270 249,292l0 -206 -75 0 0 -86 75 0 0 -65c0,-74 44,-115 112,-115 32,0 66,6 66,6l0 73 -37 0c-37,0 -48,23 -48,46l0 55 81 0 -13 86 -68 0 0 206c141,-22 249,-144 249,-292z"/>
  <path class="fil1" d="M410 381l13 -86 -81 0 0 -55c0,-23 11,-46 48,-46l37 0 0 -73c0,0 -34,-6 -66,-6 -68,0 -112,41 -112,115l0 65 -75 0 0 86 75 0 0 206c15,3 31,4 46,4 16,0 32,-1 47,-4l0 -206 68 0z"/>
 </g>
</svg>
