<?xml version="1.0" encoding="UTF-8"?>
<!DOCTYPE svg PUBLIC "-//W3C//DTD SVG 1.1//EN" "http://www.w3.org/Graphics/SVG/1.1/DTD/svg11.dtd">
<!-- Creator: CorelDRAW X8 -->
<svg xmlns="http://www.w3.org/2000/svg" xml:space="preserve" width="12.482mm" height="12.482mm" version="1.1" style="shape-rendering:geometricPrecision; text-rendering:geometricPrecision; image-rendering:optimizeQuality; fill-rule:evenodd; clip-rule:evenodd"
viewBox="0 0 591 591"
 xmlns:xlink="http://www.w3.org/1999/xlink">
 <defs>
  <style type="text/css">
   <![CDATA[
    .fil1 {fill:#FEFEFE;fill-rule:nonzero}
    .fil0 {fill:#E77D7D;fill-rule:nonzero}
   ]]>
  </style>
 </defs>
 <g id="Layer_x0020_1">
  <metadata id="CorelCorpID_0Corel-Layer"/>
  <g id="_2592047366992">
   <path class="fil0" d="M591 295c0,164 -132,296 -296,296 -163,0 -295,-132 -295,-296 0,-163 132,-295 295,-295 164,0 296,132 296,295z"/>
   <path class="fil1" d="M459 194c-11,5 -22,8 -33,9 5,0 13,-10 16,-14 5,-6 9,-12 11,-19 0,-1 0,-2 0,-2 -1,0 -1,0 -2,0 -12,7 -25,11 -39,15 -1,0 -2,0 -2,-1 -1,-1 -2,-2 -4,-3 -5,-5 -11,-9 -18,-12 -9,-4 -19,-5 -29,-4 -10,0 -19,3 -27,7 -9,5 -16,11 -22,18 -6,8 -11,17 -13,26 -3,10 -2,19 -1,28 0,2 0,2 -1,2 -53,-8 -97,-27 -133,-68 -2,-2 -2,-2 -4,0 -15,24 -8,61 12,80 2,2 5,5 8,7 -1,0 -14,-1 -26,-7 -1,-1 -2,-1 -2,1 0,3 0,5 0,8 3,23 20,45 42,54 3,1 6,2 9,3 -5,1 -11,2 -25,0 -2,0 -3,1 -2,3 11,30 35,39 53,44 2,0 4,0 7,1 0,0 -1,0 -1,0 -6,9 -26,16 -36,19 -17,7 -36,9 -55,7 -2,0 -3,0 -4,0 -1,1 0,2 1,2 4,3 7,5 11,7 12,6 24,11 37,15 66,18 140,5 189,-44 39,-39 53,-92 53,-145 0,-2 2,-4 3,-5 11,-7 19,-16 26,-26 2,-3 2,-5 2,-6 0,0 0,0 0,0 0,-1 0,0 -1,0z"/>
  </g>
 </g>
</svg>
