<?xml version="1.0" encoding="UTF-8"?>
<!DOCTYPE svg PUBLIC "-//W3C//DTD SVG 1.1//EN" "http://www.w3.org/Graphics/SVG/1.1/DTD/svg11.dtd">
<!-- Creator: CorelDRAW X8 -->
<svg xmlns="http://www.w3.org/2000/svg" xml:space="preserve" width="12.482mm" height="12.482mm" version="1.1" style="shape-rendering:geometricPrecision; text-rendering:geometricPrecision; image-rendering:optimizeQuality; fill-rule:evenodd; clip-rule:evenodd"
viewBox="0 0 591 591"
 xmlns:xlink="http://www.w3.org/1999/xlink">
 <defs>
  <style type="text/css">
   <![CDATA[
    .fil1 {fill:#FEFEFE;fill-rule:nonzero}
    .fil0 {fill:#E77D7D;fill-rule:nonzero}
   ]]>
  </style>
 </defs>
 <g id="Layer_x0020_1">
  <metadata id="CorelCorpID_0Corel-Layer"/>
  <g id="_2592047365744">
   <path class="fil0" d="M295 0c-163,0 -295,132 -295,295 0,121 72,224 175,270 0,-8 -1,-17 -1,-25 1,-29 5,-39 42,-194 1,-3 0,-5 -1,-7 -9,-24 -10,-48 -3,-73 17,-53 77,-57 88,-13 6,27 -11,63 -24,115 -11,43 40,74 83,42 41,-29 56,-98 53,-148 -6,-99 -114,-120 -182,-88 -79,36 -97,134 -61,178 4,6 8,9 6,15 -2,9 -4,18 -7,27 -2,7 -7,9 -14,6 -13,-5 -24,-13 -33,-24 -30,-38 -38,-112 1,-174 45,-69 127,-97 202,-89 90,10 146,72 157,141 5,32 1,110 -43,165 -51,63 -134,67 -172,28 -3,-2 -6,-6 -9,-10 0,2 0,3 -1,4 -18,72 -20,88 -39,122 -3,5 -6,10 -9,15 27,8 57,13 87,13 164,0 296,-132 296,-296 0,-163 -132,-295 -296,-295z"/>
   <path class="fil1" d="M256 441c1,-1 1,-2 1,-4 3,4 6,8 9,10 38,39 121,35 172,-28 44,-55 48,-133 43,-165 -11,-69 -67,-131 -157,-141 -75,-8 -157,20 -202,89 -39,62 -31,136 -1,174 9,11 20,19 33,24 7,3 12,1 14,-6 3,-9 5,-18 7,-27 2,-6 -2,-9 -6,-15 -36,-44 -18,-142 61,-178 68,-32 176,-11 182,88 3,50 -12,119 -53,148 -43,32 -94,1 -83,-42 13,-52 30,-88 24,-115 -11,-44 -71,-40 -88,13 -7,25 -6,49 3,73 1,2 2,4 1,7 -37,155 -41,165 -42,194 0,8 1,17 1,25 11,5 21,9 33,13 3,-5 6,-10 9,-15 19,-34 21,-50 39,-122z"/>
  </g>
 </g>
</svg>
